<?xml version="1.0" standalone="no"?>
<!DOCTYPE svg PUBLIC "-//W3C//DTD SVG 20010904//EN"
 "http://www.w3.org/TR/2001/REC-SVG-20010904/DTD/svg10.dtd">
<svg version="1.0" xmlns="http://www.w3.org/2000/svg"
 width="452.000000pt" height="452.000000pt" viewBox="0 0 452.000000 452.000000"
 preserveAspectRatio="xMidYMid meet">
<metadata>
Created by potrace 1.11, written by Peter Selinger 2001-2013
</metadata>
<g transform="translate(0.000000,452.000000) scale(0.100000,-0.100000)"
fill="#000000" stroke="none">
<path d="M2120 4514 c-882 -60 -1643 -617 -1965 -1438 -55 -141 -106 -336
-131 -501 -24 -162 -25 -465 0 -630 59 -401 222 -780 474 -1099 82 -104 284
-301 392 -382 318 -238 656 -380 1050 -441 159 -24 481 -24 640 0 394 61 731
203 1050 441 122 91 335 304 427 427 234 312 380 660 440 1049 24 159 24 482
-1 640 -67 437 -244 823 -528 1155 -349 408 -849 681 -1388 759 -108 15 -363
27 -460 20z m833 -915 c67 -18 72 -37 72 -252 l0 -189 -28 -24 -28 -24 -700 0
-701 0 -29 29 -29 29 0 189 c0 209 4 225 63 242 46 13 1332 14 1380 0z m660
-660 c45 -20 51 -44 55 -209 5 -178 -5 -231 -45 -258 -26 -16 -109 -17 -1374
-17 -1451 0 -1383 -2 -1408 52 -7 15 -11 93 -11 203 l0 178 31 31 31 31 1348
0 c938 0 1356 -3 1373 -11z m-1020 -638 c478 -95 787 -374 788 -711 0 -102
-12 -160 -50 -243 -135 -295 -511 -491 -986 -514 -369 -17 -740 103 -953 309
-159 153 -224 321 -200 516 41 339 407 601 928 666 90 11 368 -3 473 -23z"/>
<path d="M2131 1835 c-184 -34 -320 -161 -296 -278 10 -49 51 -112 92 -145 93
-73 195 -102 359 -102 198 0 339 56 411 163 58 87 53 160 -18 240 -98 112
-324 162 -548 122z"/>
</g>
</svg>
